<svg width="374" height="476" viewBox="0 0 374 476" fill="none" xmlns="http://www.w3.org/2000/svg">
<path d="M190.392 153.353C190.063 150.057 188.99 146.88 187.255 144.059C185.52 141.237 183.167 138.847 180.375 137.066C177.582 135.285 174.422 134.161 171.133 133.778C167.843 133.395 164.509 133.763 161.382 134.854L162.97 135.016C155.849 136.44 149.521 140.483 145.235 146.346C143.142 149.277 141.703 152.623 141.016 156.158C140.329 159.694 140.41 163.336 141.254 166.837C143.054 173.791 148.366 179.823 155.166 182.138C158.947 183.425 163.005 183.582 166.997 183.718C169.589 183.806 172.227 183.885 174.726 183.191C177.939 182.195 180.764 180.226 182.809 177.555C184.836 174.894 186.448 171.942 187.591 168.799C189.528 163.884 190.918 158.61 190.392 153.353Z" fill="#2F2E41"/>
<path d="M246.849 473.726C241.204 452.493 253.741 431.797 268.39 417.471C276.197 409.835 284.892 403.198 293.371 396.342C301.507 389.835 309.254 382.858 316.574 375.445C330.709 360.978 343.039 344.445 351.204 325.859C358.968 308.186 362.639 288.934 360.821 269.651C359.096 251.362 352.541 233.371 340.482 219.34C338.979 217.591 337.399 215.915 335.74 214.312C334.85 213.448 333.487 214.808 334.378 215.674C347.844 228.749 355.682 246.469 358.335 264.903C361.07 283.914 358.252 303.295 351.143 321.069C343.57 340.003 331.528 356.898 317.562 371.641C310.529 379.019 303.047 385.956 295.16 392.411C286.736 399.35 277.983 405.907 269.962 413.322C255.179 426.989 241.893 445.788 243.718 466.949C243.93 469.411 244.357 471.85 244.992 474.237C245.067 474.476 245.231 474.676 245.451 474.795C245.67 474.915 245.927 474.945 246.168 474.878C246.409 474.812 246.615 474.655 246.742 474.44C246.869 474.225 246.907 473.969 246.849 473.726Z" fill="#F0F0F0"/>
<path d="M305.97 352.849C297.074 337.597 290.27 321.217 285.741 304.151C281.199 287.089 278.927 269.502 278.984 251.845C279.049 234.19 281.192 216.092 286.666 199.255C291.861 183.276 301.168 168.037 315.945 159.317C323.48 154.897 332.083 152.625 340.819 152.748C350.046 152.836 359.145 155.264 367.459 159.197C375.601 163.048 383.046 168.239 389.924 174.025C396.482 179.532 402.601 185.541 408.227 191.998C419.373 204.816 428.48 219.657 433.566 235.93C438.867 252.889 439.796 271.439 434.876 288.604C430.151 305.09 419.8 319.141 407.092 330.429C393.359 342.627 377.091 351.491 360.687 359.537C356.581 361.55 352.453 363.518 348.325 365.486C347.207 366.019 348.183 367.679 349.297 367.148C366.594 358.905 384.063 350.589 399.482 339.079C413.087 328.923 425.215 316.174 432.429 300.645C440.059 284.223 441.622 265.55 438.46 247.832C435.37 230.516 427.616 214.309 417.24 200.194C412.084 193.211 406.353 186.671 400.108 180.642C393.701 174.315 386.705 168.613 379.216 163.614C363.864 153.579 344.665 147.52 326.471 152.689C310.296 157.284 297.847 170.244 290.44 184.931C286.294 193.152 283.499 201.992 281.512 210.963C279.572 219.804 278.268 228.772 277.609 237.799C274.966 273.819 282.025 309.89 298.054 342.255C300.006 346.18 302.091 350.035 304.307 353.821C304.441 354.032 304.651 354.183 304.893 354.242C305.136 354.301 305.392 354.264 305.608 354.138C305.824 354.012 305.982 353.807 306.05 353.567C306.117 353.326 306.088 353.069 305.97 352.849Z" fill="#F0F0F0"/>
<path d="M293.774 334.235C284.878 318.983 278.074 302.603 273.546 285.537C269.004 268.475 266.732 250.888 266.789 233.231C266.853 215.576 268.997 197.478 274.471 180.641C279.665 164.662 288.973 149.423 303.749 140.703C311.285 136.283 319.888 134.011 328.624 134.134C337.851 134.222 346.95 136.65 355.263 140.583C363.406 144.435 370.851 149.625 377.729 155.411C384.286 160.919 390.406 166.928 396.031 173.384C407.178 186.202 416.284 201.043 421.371 217.316C426.671 234.276 427.601 252.826 422.681 269.99C417.956 286.476 407.605 300.527 394.897 311.815C381.164 324.013 364.896 332.877 348.492 340.923C344.386 342.937 340.258 344.904 336.13 346.872C335.011 347.405 335.987 349.065 337.101 348.534C354.399 340.291 371.867 331.975 387.287 320.465C400.892 310.309 413.019 297.56 420.234 282.031C427.863 265.609 429.427 246.936 426.265 229.218C423.174 211.902 415.421 195.695 405.045 181.58C399.888 174.597 394.158 168.057 387.913 162.028C381.506 155.701 374.51 149.999 367.02 145C351.668 134.965 332.469 128.906 314.275 134.075C298.101 138.67 285.652 151.63 278.244 166.317C274.098 174.538 271.304 183.378 269.316 192.349C267.377 201.19 266.073 210.158 265.414 219.185C262.77 255.205 269.83 291.276 285.859 323.641C287.811 327.566 289.896 331.421 292.112 335.207C292.245 335.418 292.455 335.569 292.698 335.628C292.941 335.688 293.197 335.65 293.413 335.524C293.628 335.398 293.787 335.193 293.854 334.953C293.922 334.712 293.893 334.455 293.774 334.235Z" fill="#F0F0F0"/>
<path d="M118.483 298.149C117.803 297.192 117.342 296.096 117.132 294.941C116.922 293.786 116.968 292.599 117.266 291.463C117.565 290.327 118.108 289.271 118.859 288.368C119.61 287.465 120.55 286.738 121.612 286.237L143.869 216.548L159.37 224.6L132.618 290.571C133.34 292.411 133.362 294.452 132.68 296.308C131.998 298.163 130.659 299.704 128.916 300.638C127.174 301.573 125.15 301.835 123.227 301.377C121.304 300.918 119.616 299.77 118.483 298.149Z" fill="#FFB6B6"/>
<path d="M136.666 226.185C136.453 225.713 136.344 225.201 136.347 224.683C136.35 224.166 136.465 223.655 136.683 223.186L144.306 206.796C145.058 204.258 146.786 202.121 149.111 200.854C151.436 199.588 154.169 199.294 156.709 200.039C159.25 200.784 161.392 202.506 162.666 204.827C163.939 207.148 164.24 209.88 163.503 212.423L160.955 230.377C160.882 230.89 160.7 231.38 160.42 231.816C160.141 232.252 159.771 232.622 159.335 232.901C158.9 233.181 158.409 233.364 157.897 233.437C157.384 233.51 156.862 233.471 156.366 233.324L138.926 228.157C138.429 228.01 137.971 227.758 137.581 227.418C137.191 227.077 136.879 226.657 136.666 226.185Z" fill="#2F2E41"/>
<path d="M200.966 228.951C195.669 242.821 197.022 257.369 203.546 272.445H157.332C159.19 261.718 158.436 251.75 151.556 243.561L200.966 228.951Z" fill="#FFB6B6"/>
<path d="M146.879 203.462L160.556 193.515L182.937 187.298L201.587 191.028L202.684 201.334C204.017 213.87 203.438 226.536 200.966 238.898L152.475 250.088L147.501 241.384C147.501 241.384 136.311 230.194 145.014 217.761L146.879 203.462Z" fill="#2F2E41"/>
<path d="M265.671 133.887C265.976 135.021 266.029 136.208 265.826 137.364C265.623 138.521 265.169 139.619 264.495 140.581C263.822 141.543 262.946 142.345 261.929 142.932C260.911 143.519 259.778 143.876 258.608 143.977L213.585 201.639L201.834 188.715L249.785 136.099C249.745 134.122 250.432 132.2 251.714 130.696C252.997 129.191 254.787 128.21 256.745 127.937C258.704 127.664 260.694 128.119 262.339 129.216C263.984 130.312 265.169 131.974 265.671 133.887Z" fill="#FFB6B6"/>
<path d="M223.681 195.095C223.717 195.611 223.642 196.129 223.46 196.614C223.278 197.098 222.994 197.538 222.626 197.902L209.797 210.636C208.212 212.757 205.851 214.163 203.23 214.546C200.61 214.929 197.945 214.257 195.82 212.678C193.694 211.099 192.281 208.742 191.891 206.123C191.501 203.504 192.165 200.837 193.738 198.707L202.349 182.747C202.595 182.291 202.936 181.894 203.349 181.583C203.762 181.271 204.237 181.052 204.743 180.94C205.248 180.829 205.772 180.827 206.278 180.937C206.784 181.046 207.26 181.263 207.675 181.572L222.244 192.462C222.659 192.772 223.002 193.167 223.25 193.621C223.498 194.076 223.645 194.578 223.681 195.095Z" fill="#2F2E41"/>
<path d="M146.94 461.104H154.022L157.391 433.788H146.939L146.94 461.104Z" fill="#FFB6B6"/>
<path d="M144.542 457.611L155.737 456.943V461.739L166.38 469.089C166.905 469.452 167.301 469.974 167.51 470.578C167.718 471.182 167.728 471.837 167.538 472.446C167.348 473.056 166.968 473.59 166.453 473.968C165.938 474.347 165.316 474.551 164.677 474.551H151.35L149.052 469.807L148.155 474.551H143.13L144.542 457.611Z" fill="#2F2E41"/>
<path d="M197.005 461.104H204.086L207.455 433.788H197.003L197.005 461.104Z" fill="#FFB6B6"/>
<path d="M194.606 457.611L205.801 456.943V461.739L216.444 469.089C216.97 469.452 217.366 469.974 217.574 470.578C217.783 471.182 217.792 471.837 217.602 472.446C217.412 473.056 217.032 473.59 216.517 473.968C216.003 474.347 215.381 474.551 214.742 474.551H201.414L199.117 469.807L198.22 474.551H193.195L194.606 457.611Z" fill="#2F2E41"/>
<path d="M215.818 308.061V321.989L214.457 339.005C214.457 339.005 214.027 353.864 213.507 365.584C213.193 372.708 212.84 378.671 212.532 379.442C212.153 380.385 212.243 382.959 212.461 385.661C212.718 388.787 213.142 392.086 213.212 393.19C213.347 395.25 212.256 404.102 212.256 404.102C212.256 404.102 211.036 426.297 209.265 428.068C207.493 429.84 209.265 434.878 209.265 434.878C200.959 441.002 190.471 433.518 190.471 433.518C192.788 429.827 189.11 404.634 189.11 404.634C189.11 404.634 188.571 396.033 187.48 393.723C186.389 391.412 186.113 376.977 186.113 376.977V355.597C186.113 355.597 183.25 351.219 182.846 349.178C182.442 347.137 182.846 339.923 182.846 339.923L179.855 329.845L177.807 337.74C177.807 337.74 172.506 359.801 171.549 362.522C170.593 365.244 172.089 367.972 172.089 367.972C172.089 367.972 173.456 372.169 172.089 374.095C171.239 375.301 170.589 376.636 170.163 378.049C170.163 378.049 169.463 386.085 168.238 388.96C167.012 391.836 165.927 395.379 165.927 395.379C165.927 395.379 166.216 400.809 164.99 402.035C163.764 403.261 163.359 409.39 163.359 409.39C163.359 409.39 163.629 416.329 161.992 418.781C160.355 421.233 160.355 435.122 160.355 435.122C157.517 436.944 154.246 437.979 150.876 438.122C147.507 438.265 144.16 437.511 141.177 435.937C141.177 435.937 142.794 434.423 141.568 427.362C140.343 420.302 142.448 401.078 142.448 401.078C142.448 401.078 142.178 396.2 143.539 394.018C144.9 391.836 142.852 387.619 143.398 385.712C143.943 383.806 145.58 373.453 145.58 373.453C145.58 373.453 144.9 347.991 144.9 346.63C144.739 344.208 144.083 341.844 142.974 339.685C141.748 337.509 142.974 321.713 142.974 321.713C142.974 321.713 145.862 313.549 144.9 311.777C143.937 310.006 145.541 306.874 145.541 306.874C145.541 306.874 144.046 303.196 145.541 302.515C147.037 301.835 147.313 299.114 147.313 299.114L148.353 285.904C148.353 285.904 148.744 279.909 149.99 279.64C151.235 279.37 150.689 277.059 151.915 275.423C152.512 274.316 152.924 273.119 153.135 271.88C153.308 271.122 153.468 270.333 153.603 269.575C153.988 267.522 154.226 265.75 154.226 265.75C162.262 272.425 204.515 267.746 204.56 267.746C207.243 268.33 210.433 277.644 212.737 285.763C214.785 293.018 215.822 300.522 215.818 308.061Z" fill="#2F2E41"/>
<path d="M185.085 169.772C188.165 159.64 182.448 148.931 172.317 145.851C162.186 142.771 151.476 148.487 148.396 158.619C145.316 168.75 151.033 179.46 161.164 182.539C171.295 185.619 182.005 179.903 185.085 169.772Z" fill="#FFB6B6"/>
<path d="M145.069 167.537L152.493 165.992L153.86 156.139L156.424 165.174L159.972 164.436L160.77 158.688L162.265 163.958L188.632 158.472C188.089 155.863 187.037 153.386 185.537 151.183C184.037 148.979 182.117 147.093 179.888 145.632C177.659 144.171 175.164 143.163 172.545 142.666C169.927 142.169 167.236 142.193 164.626 142.736L160.805 143.531C155.535 144.628 150.916 147.773 147.965 152.275C145.014 156.777 143.972 162.267 145.069 167.537Z" fill="#2F2E41"/>
<path d="M221.023 23.368L220.974 23.4616C211.291 19.0007 200.263 18.4355 190.175 21.8832C180.087 25.331 171.712 32.5273 166.784 41.9814C161.857 51.4355 160.755 62.4228 163.707 72.667C166.66 82.9111 173.439 91.6271 182.642 97.0091L182.594 97.1027L256.328 135.532L294.758 61.7974C297.287 56.9553 298.838 51.6622 299.32 46.2206C299.803 40.7789 299.209 35.2955 297.571 30.0838C295.933 24.8721 293.284 20.0342 289.776 15.8467C286.267 11.6593 281.968 8.20438 277.124 5.6795C272.279 3.15462 266.984 1.60928 261.542 1.13183C256.1 0.654382 250.617 1.25418 245.407 2.89693C240.197 4.53969 235.362 7.19319 231.178 10.7058C226.994 14.2183 223.543 18.5211 221.023 23.368Z" fill="#658DDD"/>
<path d="M286.716 446.481L286.703 446.504C284.256 445.377 281.469 445.234 278.919 446.105C276.369 446.977 274.252 448.796 273.007 451.185C271.761 453.575 271.483 456.352 272.229 458.941C272.975 461.53 274.689 463.733 277.015 465.093L277.003 465.117L295.639 474.83L305.352 456.194C305.991 454.97 306.383 453.632 306.506 452.257C306.628 450.881 306.478 449.495 306.064 448.178C305.65 446.86 304.98 445.637 304.093 444.579C303.207 443.521 302.12 442.647 300.895 442.009C299.671 441.371 298.333 440.98 296.957 440.86C295.582 440.739 294.196 440.891 292.879 441.306C291.562 441.721 290.34 442.392 289.282 443.28C288.225 444.168 287.353 445.256 286.716 446.481Z" fill="#FF6584"/>
<path d="M39.4953 210.179V210.285C28.8469 210.804 18.8064 215.4 11.4538 223.12C4.10122 230.84 0.00011712 241.092 0.00012207 251.753C0.000127021 262.414 4.10125 272.667 11.4538 280.387C18.8064 288.107 28.847 292.703 39.4954 293.222V293.327L122.643 293.327L122.643 210.179C122.649 204.716 121.577 199.306 119.49 194.257C117.403 189.209 114.342 184.621 110.481 180.756C106.62 176.891 102.035 173.825 96.9883 171.734C91.9417 169.642 86.5323 168.565 81.0694 168.565C75.6064 168.565 70.197 169.642 65.1504 171.734C60.1038 173.825 55.519 176.891 51.6579 180.756C47.7969 184.621 44.7354 189.209 42.6485 194.257C40.5615 199.306 39.4901 204.716 39.4953 210.179Z" fill="#658DDD"/>
<path d="M426.997 475.852H11.5299C11.3272 475.852 11.1328 475.771 10.9895 475.628C10.8462 475.485 10.7657 475.29 10.7657 475.088C10.7657 474.885 10.8462 474.691 10.9895 474.547C11.1328 474.404 11.3272 474.323 11.5299 474.323H426.997C427.2 474.323 427.394 474.404 427.538 474.547C427.681 474.691 427.762 474.885 427.762 475.088C427.762 475.29 427.681 475.485 427.538 475.628C427.394 475.771 427.2 475.852 426.997 475.852Z" fill="#CACACA"/>
<path d="M360.849 288.731C369.342 288.678 377.553 285.68 384.083 280.249C390.73 274.659 395.105 266.832 396.384 258.241C397.135 253.384 396.893 248.426 395.673 243.665C395.598 243.427 395.434 243.227 395.215 243.107C394.995 242.988 394.738 242.958 394.497 243.024C394.257 243.091 394.051 243.248 393.924 243.463C393.797 243.678 393.758 243.934 393.816 244.177C395.874 252.26 394.946 260.814 391.201 268.268C388.324 273.841 383.973 278.517 378.62 281.786C373.268 285.054 367.121 286.791 360.849 286.805C360.599 286.814 360.363 286.919 360.189 287.099C360.016 287.278 359.919 287.518 359.919 287.768C359.919 288.018 360.016 288.258 360.189 288.437C360.363 288.617 360.599 288.722 360.849 288.731Z" fill="#F0F0F0"/>
<path d="M212.165 38.6267C206.686 33.426 198.035 33.4396 191.708 37.06C184.608 41.1229 181.389 49.5183 181.551 57.401C181.735 66.2727 186.072 74.3056 191.673 80.9589C197.643 87.8718 204.589 93.8764 212.293 98.7826C219.976 103.786 228.289 107.748 237.014 110.563C238.088 110.91 239.168 111.238 240.253 111.548C240.496 111.606 240.752 111.567 240.967 111.44C241.182 111.313 241.339 111.107 241.405 110.867C241.472 110.626 241.442 110.369 241.322 110.149C241.203 109.93 241.003 109.766 240.765 109.691C224.008 104.903 208.775 95.8643 196.542 83.4525C190.718 77.488 185.543 70.3195 183.951 61.9762C182.545 54.6079 184.099 46.0527 189.81 40.8042C195.361 35.7022 205.078 34.5534 210.803 39.9883C211.702 40.8413 213.066 39.482 212.165 38.6267Z" fill="white"/>
<path d="M38.0718 230.434C30.6714 229.514 23.7214 234.719 20.8391 241.294C17.6068 248.666 19.786 257.165 24.4746 263.396C29.6381 270.259 37.4594 274.259 45.6351 276.382C54.4111 278.662 63.7274 279.277 72.7613 278.856C83.4407 278.361 93.9794 276.219 104.004 272.505C105.156 272.078 104.658 270.216 103.493 270.648C86.804 276.845 68.2256 278.8 50.6762 275.528C42.8318 274.066 34.8426 271.276 28.997 265.632C23.7003 260.518 19.9532 252.773 21.5472 245.294C23.1312 237.862 30.1973 231.381 38.0718 232.36C39.2984 232.512 39.2874 230.586 38.0718 230.434Z" fill="white"/>
<path d="M161.191 136.114C162.981 128.959 159.514 121.284 154.146 116.226C148.778 111.168 141.773 108.261 134.841 105.744C129.312 103.736 122.836 101.99 117.832 105.082C113.812 107.566 112.067 112.391 109.769 116.521C105.389 124.391 98.3223 130.42 89.8618 133.508C81.4012 136.595 72.1119 136.534 63.6929 133.335C66.6604 141.949 76.8819 146.163 85.9744 145.578C95.067 144.993 103.465 140.805 111.935 137.448C120.405 134.09 129.827 131.495 138.533 134.185C142.207 135.32 145.549 137.345 149.187 138.592C152.825 139.838 157.082 140.209 160.324 138.141" fill="#2F2E41"/>
<path d="M288.543 398.175L282.345 387.265C282.212 387.054 282.001 386.903 281.759 386.843C281.516 386.784 281.26 386.822 281.044 386.948C280.828 387.074 280.67 387.279 280.603 387.519C280.535 387.76 280.564 388.017 280.682 388.237L286.88 399.147C287.014 399.358 287.224 399.509 287.467 399.568C287.709 399.628 287.966 399.59 288.181 399.464C288.397 399.338 288.555 399.133 288.623 398.893C288.69 398.652 288.662 398.395 288.543 398.175Z" fill="#F0F0F0"/>
</svg>
