<svg width="210" height="210" viewBox="0 0 210 210" fill="none" xmlns="http://www.w3.org/2000/svg">
<g clip-path="url(#clip0_50_361)">
<path d="M104.998 209.993C102.604 209.993 100.217 209.912 97.9068 209.758C95.5194 209.599 93.1287 209.357 90.7952 209.037C89.7681 208.899 88.8388 208.761 87.9532 208.616C85.3233 208.188 82.6464 207.646 79.9997 207C79.0939 206.781 78.2049 206.552 77.3631 206.316C77.0668 206.239 76.7637 206.155 76.464 206.07C75.1845 205.71 73.9453 205.336 72.787 204.959C72.7129 204.939 72.6254 204.909 72.5378 204.882C71.4906 204.545 70.3996 204.171 69.2985 203.771C68.3691 203.434 67.4263 203.077 66.4161 202.68C64.3116 201.851 62.2036 200.935 60.1496 199.962C59.2943 199.561 58.402 199.12 57.4187 198.622C57.2436 198.534 57.0652 198.444 56.8901 198.353L56.688 198.248C45.145 192.254 34.9119 184.257 26.2782 174.482C9.33408 155.295 0 130.617 0 104.995C0 76.9489 10.9234 50.5798 30.7533 30.7499C50.5832 10.9201 76.9523 0 104.998 0C133.044 0 159.413 10.9201 179.247 30.7499C199.08 50.5798 210 76.9489 210 104.995C210 121.474 206.289 137.25 198.976 151.884C191.999 165.838 181.786 178.294 169.434 187.901C166.532 190.163 163.474 192.292 160.35 194.231C157.181 196.204 153.857 198.033 150.47 199.662C149.716 200.026 148.908 200.403 147.924 200.844L147.83 200.885C147.709 200.939 147.588 200.993 147.466 201.043C146.732 201.37 145.985 201.69 145.247 201.993L144.914 202.134C144.705 202.222 144.51 202.302 144.315 202.376C141.813 203.387 139.291 204.296 136.819 205.074C136.624 205.141 136.425 205.202 136.223 205.262L136.048 205.316C133.994 205.953 131.832 206.545 129.633 207.074C121.623 209.007 113.332 209.986 104.998 209.986L104.998 209.993ZM104.998 0.673455C77.1308 0.673455 50.9334 11.5228 31.2281 31.2281C11.5262 50.93 0.673455 77.1274 0.673455 104.995C0.673455 130.455 9.94693 154.972 26.7867 174.034C35.3665 183.745 45.5323 191.692 57.0012 197.645L57.2032 197.75C57.375 197.841 57.5501 197.928 57.7252 198.016C58.705 198.514 59.5906 198.952 60.4392 199.349C62.4798 200.316 64.5742 201.225 66.6653 202.046C67.6687 202.444 68.6048 202.797 69.5275 203.131C70.6218 203.528 71.7061 203.898 72.7499 204.235C72.8308 204.262 72.9082 204.286 72.9857 204.309C74.1474 204.686 75.3731 205.057 76.6459 205.417C76.9388 205.501 77.2385 205.585 77.5348 205.663C78.3767 205.895 79.2555 206.124 80.1546 206.343C82.7878 206.986 85.4446 207.528 88.0609 207.949C88.9398 208.094 89.8624 208.232 90.8827 208.37C93.1994 208.687 95.5767 208.929 97.9473 209.084C100.244 209.239 102.614 209.32 104.992 209.32C113.275 209.32 121.508 208.347 129.472 206.427C131.657 205.902 133.802 205.313 135.849 204.68L136.024 204.626C136.22 204.565 136.412 204.508 136.607 204.441C139.068 203.666 141.577 202.764 144.065 201.757C144.261 201.679 144.449 201.602 144.638 201.525L145.052 201.353C145.763 201.06 146.483 200.75 147.197 200.434C147.322 200.38 147.436 200.329 147.554 200.275L147.648 200.235C148.625 199.794 149.43 199.42 150.177 199.06C153.544 197.44 156.848 195.625 159.996 193.662C163.101 191.736 166.138 189.618 169.024 187.372C181.294 177.822 191.443 165.448 198.376 151.585C205.643 137.048 209.33 121.373 209.33 104.998C209.33 77.1308 198.477 50.9334 178.772 31.2315C159.067 11.5228 132.866 0.673455 104.998 0.673455Z" fill="#DADBDC"/>
<path d="M92.2532 143.49L117.767 149.601L114.807 113.848L92.2734 115.713L92.2532 143.49Z" fill="#F3A3A6"/>
<path d="M110.504 124.084C124.221 124.084 135.341 112.964 135.341 99.247C135.341 85.5299 124.221 74.41 110.504 74.41C96.7867 74.41 85.6668 85.5299 85.6668 99.247C85.6668 112.964 96.7867 124.084 110.504 124.084Z" fill="#F3A3A6"/>
<path d="M136.718 204.757C136.519 204.824 136.324 204.885 136.125 204.946C136.068 204.963 136.011 204.983 135.954 205C133.849 205.653 131.714 206.235 129.556 206.754C121.68 208.653 113.454 209.657 104.998 209.657C102.621 209.657 100.264 209.579 97.9304 209.421C95.543 209.263 93.1792 209.023 90.8423 208.704C89.8927 208.576 88.9499 208.438 88.0104 208.283C85.3334 207.848 82.6868 207.306 80.0805 206.67C79.2016 206.458 78.3261 206.232 77.454 205.99C77.1543 205.912 76.8546 205.828 76.5583 205.744C75.3293 205.397 74.1069 205.03 72.8947 204.636C72.8139 204.612 72.7297 204.585 72.6489 204.558C71.5647 204.208 70.4871 203.838 69.4163 203.451C68.4533 203.104 67.497 202.74 66.5441 202.363C64.426 201.528 62.3451 200.626 60.2978 199.656L61.0857 196.086L63.8166 183.722L69.7463 156.858L75.7401 129.711L91.4888 130.148H91.4955L92.2633 130.172L116.215 130.839L126.694 131.132L136.718 204.757Z" fill="#DADBDC"/>
<path d="M160.174 193.945C157.002 195.921 153.713 197.73 150.325 199.359C149.487 199.763 148.638 200.154 147.786 200.538C147.635 200.605 147.487 200.673 147.335 200.737C146.601 201.063 145.864 201.38 145.119 201.686L144.786 201.828C144.591 201.908 144.395 201.989 144.197 202.067C141.749 203.057 139.257 203.959 136.721 204.757C136.523 204.824 136.327 204.885 136.129 204.946L114.161 148.736L112.676 144.941L108.534 134.337L107.16 130.825L116.228 130.967L126.697 131.132C136.199 132.347 144.079 139.072 146.776 148.261L160.178 193.945L160.174 193.945Z" fill="#DADBDC"/>
<path d="M93.0816 110.595C93.9638 110.447 94.846 110.295 95.7282 110.147C95.937 105.429 96.3916 100.166 99.9239 97.0313C101.87 95.3039 104.685 94.2971 105.652 91.8794C106.453 89.8759 105.705 87.4144 106.823 85.5691C107.999 83.6262 110.625 83.2794 112.895 83.138C116.447 82.9191 120.064 82.7036 123.522 83.5454C126.98 84.3906 130.317 86.4716 131.792 89.7109C132.246 90.7076 132.509 91.7818 132.772 92.8458C133.657 96.4454 135.014 103.294 135.014 103.294C135.014 103.294 135.277 101.877 136.024 99.119C137.55 96.937 139.412 94.9234 140.308 92.4182C141.385 89.4011 140.91 86.0305 139.853 83.01C137.452 76.1374 131.883 70.3289 124.946 68.1199C118.006 65.9144 111.443 64.6651 106.258 69.7766C105.285 70.7363 104.409 71.8071 103.298 72.6018C101.244 74.0733 98.6207 74.4437 96.304 75.4606C91.1487 77.7234 86.4884 83.1649 85.3267 88.6738C84.165 94.1826 84.7711 99.8902 85.384 105.49C85.9126 110.319 88.2057 115.703 92.2263 118.43C92.3913 115.959 92.5563 113.491 92.7212 111.019L93.0782 110.598H93.0816V110.595Z" fill="#2F2E43"/>
<path d="M106.83 133.815L106.588 134.213L99.806 145.298L89.7513 161.744L87.7141 165.074L80.2859 177.223C80.2859 177.223 77.8749 180.614 73.8073 184.961L73.7938 184.974C72.3156 186.55 70.6218 188.251 68.7463 189.958C68.7328 189.975 68.7193 189.988 68.7025 189.998C66.4127 192.086 63.8536 194.184 61.0857 196.086C59.9476 196.871 58.7758 197.619 57.577 198.319C57.3312 198.198 57.0888 198.07 56.8463 197.945C45.3235 191.962 35.0533 183.9 26.5341 174.256C35.4271 160.053 53.0245 144.126 64.3621 134.64C70.7767 129.27 79.3464 127.246 87.4818 129.192L91.4888 130.149L92.2633 130.334L106.83 133.815Z" fill="#DADBDC"/>
<path d="M138.469 130.398C134.102 128.825 122.542 128.818 117.356 130.569C116.349 130.909 115.74 131.933 115.915 132.98L116.12 134.223C115.669 134.156 115.228 134.028 114.811 133.836C113.575 133.27 111.14 132.502 108.682 133.728C106.965 134.583 105.756 136.196 105.332 138.072C104.318 142.557 106.874 145.039 106.874 145.039L110.278 148.234C113.13 150.908 116.242 153.292 119.565 155.346L119.632 155.386L118.42 148.093C117.737 149.295 116.191 149.689 115.016 148.961C112.046 147.123 107.194 143.439 107.783 139.257C108.194 136.341 109.813 135.721 111.369 135.853C113.11 136.001 114.629 137.095 115.373 138.674C115.551 139.052 115.844 139.361 116.208 139.563L117.083 140.042L119.649 155.501C119.764 156.194 120.208 156.794 120.838 157.103C126.872 160.063 133.384 158.528 135.637 157.838C136.152 157.679 136.593 157.339 136.87 156.875L137.354 156.07C137.523 155.794 137.624 155.48 137.657 155.161L139.897 132.66C139.994 131.667 139.405 130.738 138.466 130.398L138.469 130.398Z" fill="#658DDD"/>
<path d="M128.014 132.549C133.617 132.549 138.159 132.121 138.159 131.593C138.159 131.065 133.617 130.637 128.014 130.637C122.41 130.637 117.868 131.065 117.868 131.593C117.868 132.121 122.41 132.549 128.014 132.549Z" fill="#DEDFE0"/>
<path d="M107.746 150.76C113.251 146.547 115.43 140.213 112.612 136.614C109.797 133.014 103.052 133.509 97.5432 137.725C95.3208 139.378 93.5429 141.553 92.3677 144.069L69.2816 162.215L78.4474 173.179L100.234 154.123C102.991 153.628 105.567 152.474 107.743 150.76H107.746Z" fill="#F3A3A6"/>
<path d="M92.472 166.525L83.34 150.463L50.1084 166.101L68.7025 190.002L92.472 166.525Z" fill="#DADBDC"/>
<path opacity="0.1" d="M72.5546 155.538C72.5546 155.538 48.3305 173.273 49.2262 173.175C50.1219 173.078 62.0656 166.508 62.0656 166.508L72.5546 155.538Z" fill="#272223"/>
</g>
<defs>
<clipPath id="clip0_50_361">
<rect width="210" height="209.993" fill="white"/>
</clipPath>
</defs>
</svg>
